<?xml version="1.0" encoding="iso-8859-1"?>
<!-- Uploaded to: SVG Repo, www.svgrepo.com, Generator: SVG Repo Mixer Tools -->
<svg fill="#000000" height="800px" width="800px" version="1.1" id="Layer_1" xmlns="http://www.w3.org/2000/svg" xmlns:xlink="http://www.w3.org/1999/xlink" 
	 viewBox="0 0 511.999 511.999" xml:space="preserve">
<g>
	<g>
		<path d="M291.797,75.013c-2.79,2.119-4.016,5.846-2.988,9.201c1.081,3.529,4.404,6.005,8.098,6.005
			c4.145,0,7.731-3.133,8.366-7.217C306.411,75.67,297.676,70.548,291.797,75.013z"/>
	</g>
</g>
<g>
	<g>
		<path d="M125.165,203.133c-3.243-1.922-7.435-1.464-10.179,1.127c-5.426,5.127-1.647,14.582,5.828,14.582
			c4.209,0,7.898-3.233,8.395-7.42C129.598,208.141,128.02,204.824,125.165,203.133z"/>
	</g>
</g>
<g>
	<g>
		<path d="M159.134,204.119c-5.623,5.072-1.902,14.723,5.676,14.723c4.288,0,8.009-3.35,8.419-7.626
			C173.95,203.673,164.765,199.04,159.134,204.119z"/>
	</g>
</g>
<g>
	<g>
		<path d="M457.118,207.208c0-14.463-5.633-28.061-15.86-38.288c-7.413-7.413-16.599-12.395-26.598-14.586
			c3.461-36.711-0.889-72.506-1.457-76.922c-0.18-20.603-8.274-39.946-22.864-54.535c-3.303-3.304-8.66-3.303-11.964,0
			c-3.304,3.304-3.304,8.661,0.001,11.966c9.687,9.686,15.708,22.053,17.411,35.424c-26.73,1.153-51.616-5.744-74.072-20.608
			c-11.046-7.311-19.031-15.028-23.735-20.143c10.305-7.891,23.174-12.595,37.127-12.595c8.263,0,16.277,1.617,23.815,4.806
			c4.305,1.82,9.269-0.193,11.088-4.497c1.821-4.304-0.193-9.267-4.495-11.088C355.878,2.067,345.649,0,335.108,0
			c-43.073,0-78.115,35.041-78.115,78.115c0,30.465,17.542,56.895,43.044,69.766c-17.988,10.615-30.168,30.045-30.569,52.31
			c-11.907,50.397-32.949,125.119-42.9,135.069c-0.636,0.636-0.879,0.606-1.365,0.538c-7.347-0.984-22.392-19.308-31.991-35.972
			c-4.174-9.882-11.175-18.289-19.98-24.207c20.205-10.876,33.972-32.226,33.972-56.734c0-35.505-28.885-64.391-64.391-64.391
			c-12.936,0-25.414,3.823-36.086,11.055c-3.868,2.622-4.879,7.882-2.257,11.75c2.621,3.868,7.881,4.878,11.75,2.257
			c7.859-5.326,17.055-8.141,26.593-8.141c26.175,0,47.469,21.295,47.469,47.469c0,26.175-21.295,47.468-47.469,47.468
			s-47.469-21.294-47.469-47.468c0-7.893,1.974-15.704,5.708-22.59c2.227-4.107,0.703-9.243-3.405-11.47
			c-4.108-2.226-9.242-0.703-11.47,3.405c-5.072,9.354-7.753,19.955-7.753,30.656c0,24.509,13.768,45.859,33.972,56.734
			c-13.785,9.263-23.136,24.629-24.16,42.197c-7.728,9.573-33.356,45.837-33.356,105.776c0,4.672,3.788,8.461,8.461,8.461
			c4.673,0,8.461-3.788,8.461-8.461c0-32.308,8.313-57.098,16.333-73.513v36.523v40.65c0,4.672,3.788,8.461,8.461,8.461h11.391
			c5.075,25.816,11.308,45.675,18.619,59.366h-4.473c-4.672,0-8.461,3.788-8.461,8.461s3.788,8.461,8.461,8.461h41.363
			c4.672,0,8.461-3.788,8.461-8.461s-3.788-8.461-8.461-8.461h-4.466c7.308-13.693,13.538-33.551,18.613-59.366h11.391
			c4.672,0,8.461-3.788,8.461-8.461v-40.65v-51.523c7.662,8.7,16.68,16.311,25.456,17.49c0.892,0.12,1.771,0.179,2.637,0.179
			c4.87,0,9.304-1.882,12.946-5.523c5.018-5.018,13.68-18.741,30.906-79.709v19.156l-9.461,100.014
			c-0.224,2.372,0.562,4.729,2.165,6.491c1.604,1.762,3.876,2.767,6.259,2.767h24.732c2.707,23.828,12.169,90.669,35.076,113.577
			c1.62,1.619,3.784,2.478,5.986,2.478c1.09,0,2.188-0.211,3.235-0.644c1.048-0.434,1.959-1.077,2.731-1.849l0.015,0.015
			c22.908-22.908,32.369-89.75,35.076-113.577h27.333c2.383,0,4.656-1.005,6.259-2.767s2.389-4.12,2.165-6.491l-3.396-35.828
			c-0.441-4.652-4.543-8.058-9.222-7.625c-4.651,0.441-8.065,4.57-7.625,9.221l2.518,26.57H277.701l7.898-83.489h31.877
			c10.359,9.628,23.594,14.454,36.836,14.454c11.06,0,22.113-3.368,31.492-10.084l2.346,24.776c0.415,4.38,4.101,7.663,8.413,7.663
			c0.266,0,0.537-0.012,0.808-0.038c4.652-0.441,8.066-4.569,7.626-9.221l-3.441-36.326c10.93,5.494,19.955,8.245,27.174,8.244
			c5.805,0,10.449-1.773,13.985-5.31c13.876-13.876,6.771-37.754,2.475-48.59C452.915,231.522,457.118,219.691,457.118,207.208z
			 M105.055,321.034c0-20.821,16.939-37.759,37.759-37.759s37.759,16.939,37.759,37.759v57.108h-75.518V321.034z M134.36,470.217
			c-3.314-9.61-6.384-21.204-9.114-34.504h9.114V470.217z M151.281,470.189v-34.476h9.101
			C157.656,448.999,154.59,460.585,151.281,470.189z M151.281,418.792v-7.314c0-4.672-3.788-8.461-8.461-8.461
			s-8.461,3.788-8.461,8.461v7.314h-29.305v-23.729h75.518v23.729H151.281z M342.655,395.944h15.523
			c-1.086,8.911-3.08,23.273-6.188,38.639c-2.773,13.708-5.927,25.668-9.336,35.555V395.944z M325.734,395.943v74.199
			c-3.41-9.886-6.564-21.85-9.337-35.56c-3.108-15.366-5.101-29.729-6.186-38.639H325.734z M399.042,122.912
			c0.047,9.6-0.282,20.011-1.28,30.398c-5.172,0.491-10.185,1.717-14.928,3.615c-3.702-3.617-7.814-6.711-12.223-9.267
			C381.982,141.83,391.741,133.299,399.042,122.912z M402.09,194.061c0,4.057-1.574,7.864-4.431,10.72
			c-2.855,2.856-6.662,4.43-10.719,4.43s-7.864-1.574-10.719-4.43h-0.001c-2.856-2.856-4.43-6.662-4.43-10.719
			c0.001-4.057,1.574-7.864,4.431-10.72c2.855-2.856,6.662-4.43,10.719-4.43c4.057,0,7.864,1.574,10.72,4.43
			C400.516,186.198,402.09,190.004,402.09,194.061z M273.914,78.115c0-13.69,4.52-26.345,12.145-36.551
			c5.401,5.807,13.995,13.964,25.698,21.794c7.937,5.311,17.989,10.887,30.006,15.323c-1.924,5.129,1.702,11.537,7.859,11.537
			c3.939,0,7.432-2.841,8.261-6.668c11.299,2.679,23.908,4.163,37.738,3.668c-4.409,29.425-29.84,52.066-60.468,52.088h-0.087
			C301.342,139.282,273.914,111.842,273.914,78.115z M305.175,278.611h-18.813v-77.295c0-24.863,20.222-45.089,45.078-45.089h3.625
			c0.015,0,0.029,0.001,0.044,0.001c0.015,0,0.029-0.001,0.044-0.001h4.398c10.366,0,20.241,3.539,28.167,9.898
			c-1.038,0.893-2.056,1.816-3.035,2.794l-48.657,48.657C299.549,234.053,295.933,258.593,305.175,278.611z M430.751,277.729
			c-0.632,0.633-5.55,1.313-17.574-4.15l18.786-18.786C434.327,263.341,435.326,273.154,430.751,277.729z M429.292,233.53
			l-31.668,31.668c-11.046-6.718-19.942-13.505-20.046-13.585c-3.706-2.84-9.017-2.139-11.861,1.57
			c-2.843,3.708-2.14,9.017,1.567,11.859c0.411,0.315,7.954,6.076,18.049,12.447l-3.497,3.497c-0.073,0.07-0.144,0.141-0.214,0.214
			l-0.987,0.987c-14.514,14.515-38.131,14.515-52.645,0.001c-7.031-7.031-10.904-16.38-10.904-26.323
			c0-9.944,3.873-19.292,10.904-26.324l27.8-27.801c1.375,5.636,4.263,10.804,8.464,15.005c6.052,6.052,14.109,9.386,22.684,9.386
			c8.576,0,16.632-3.333,22.683-9.386c6.053-6.052,9.387-14.109,9.387-22.686s-3.333-16.632-9.386-22.684
			c-0.323-0.323-0.654-0.634-0.988-0.941c7.566,1.155,14.843,4.634,20.657,10.449c7.031,7.031,10.904,16.38,10.904,26.323
			C440.196,217.151,436.324,226.5,429.292,233.53z"/>
	</g>
</g>
</svg>