<?xml version="1.0" encoding="iso-8859-1"?>
<!-- Uploaded to: SVG Repo, www.svgrepo.com, Generator: SVG Repo Mixer Tools -->
<svg fill="#000000" height="800px" width="800px" version="1.1" id="Layer_1" xmlns="http://www.w3.org/2000/svg" xmlns:xlink="http://www.w3.org/1999/xlink" 
	 viewBox="0 0 508 508" xml:space="preserve">
<g>
	<g>
		<path d="M253.25,0c-88.6,0-160.7,76.2-160.7,169.9c0,45.2,16.6,87.7,46.8,119.8c5.4,5.8,14.3,6,20,0.7c5.7-5.3,5.9-14.3,0.6-19.9
			c-25.3-26.8-39.2-62.5-39.2-100.5c0-78.1,59.4-141.7,132.4-141.7s132.4,63.6,132.4,141.7c0,38.3-14.1,74.2-39.8,101.1
			c-5.4,5.6-5.4,14.9,0.5,19.9c7.8,6.7,17.2,2.4,19.9-0.5c30.7-32.2,47.6-75,47.6-120.6C413.85,76.2,341.85,0,253.25,0z"/>
	</g>
</g>
<g>
	<g>
		<path d="M339.05,100.4c-2.6-3.8-7.5-6.1-12.1-6.1c-19.8,0-38.7-4.6-56.1-13.7c-6-3.1-13.4-1.6-17.6,3.7
			c-23.1,29-50,39.7-83.5,33.3c-6.8-1.3-13.5,2.5-15.9,9c-5.2,13.9-7.8,28.5-7.8,43.4c0,64.2,48.1,116.4,107.2,116.4
			c59.1,0,107.2-52.2,107.2-116.4C360.45,144.7,353.05,120.7,339.05,100.4z M253.25,258.1c-43.5,0-79-39.6-79-88.2
			c0-7.7,0.9-15.4,2.7-22.8c35.3,3.3,65.7-9.1,91-36.7c16.4,7.1,33.7,11,51.6,11.9c8.3,14.2,12.6,30.5,12.6,47.6
			C332.15,218.6,296.75,258.1,253.25,258.1z"/>
	</g>
</g>
<g>
	<g>
		<path d="M323.95,316.3c-6.3-2-13.1,0.6-16.4,6.3l-53.7,91.4l-53.6-91.4c-3.3-5.7-10.2-8.3-16.4-6.3
			c-84,26.5-140.4,97.9-140.4,177.6c0,7.8,6.3,14.1,14.1,14.1h392.8c0.1,0,0.1,0,0.1,0c7.8,0,14.1-6.3,14.1-14.1
			C464.55,414.1,407.25,342.5,323.95,316.3z M72.35,479.8c5.9-58.3,48-109.6,109.4-132.9l59.9,102.1c2.5,4.3,7.2,7,12.2,7
			s9.6-2.6,12.2-7l60-102.1c61.4,23.3,103.5,74.6,109.4,132.9H72.35z"/>
	</g>
</g>
<g>
	<g>
		<circle cx="215.35" cy="174.2" r="14.1"/>
	</g>
</g>
<g>
	<g>
		<circle cx="291.05" cy="174.2" r="14.1"/>
	</g>
</g>
</svg>